<?xml version="1.0" encoding="UTF-8"?>
<svg width="50px" height="50px" viewBox="0 0 50 50" version="1.1" xmlns="http://www.w3.org/2000/svg" xmlns:xlink="http://www.w3.org/1999/xlink">
    <!-- Generator: Sketch 48.2 (47327) - http://www.bohemiancoding.com/sketch -->
    <title>1支付_slice</title>
    <desc>Created with Sketch.</desc>
    <defs></defs>
    <g id="Artboard" stroke="none" stroke-width="1" fill="none" fill-rule="evenodd">
        <g id="1支付" fill-rule="nonzero">
            <path d="M0,25 C0,38.8 11.2,50 25,50 C38.8,50 50,38.8 50,25 C50,11.2 38.8,0 25,0 C11.2,0 0,11.2 0,25 Z" id="XMLID_2_" fill="#FFD2D2"></path>
            <path d="M14.2201835,26.6642066 L15.6118624,37.0037145 C15.8852279,38.1194888 16.4816617,38.3922336 17.0035413,37.2764593 L20.383333,32.2430778 C20.4578872,32.2678728 14.2201835,26.6642066 14.2201835,26.6642066 Z M36.2385321,24.4326581 L33.7036884,14.0931502 C33.4303229,12.9773759 32.833889,12.9773759 32.3120094,13.8204053 L29.7523143,18.8289919 L36.2385321,24.4326581 Z" id="XMLID_8_" fill="#FF8888"></path>
            <path d="M13.3027523,25.6163733 C13.3027523,31.9640053 18.5294494,37.0718654 24.9874358,37.0718654 C31.4454222,37.0718654 36.6972477,31.9392099 36.6972477,25.6163733 C36.6972477,19.2935367 31.4705506,14.1360856 25.0125642,14.1360856 C18.5545778,14.1360856 13.3027523,19.2687412 13.3027523,25.6163733 Z" id="XMLID_3_" fill="#F77878"></path>
            <path d="M20.6422018,26.9242939 L20.6422018,28.0254173 C20.6422018,28.3190502 20.8916544,28.5882137 21.2159428,28.5882137 L23.4859614,28.5882137 C23.7853045,28.5882137 24.0597023,28.8329077 24.0597023,29.15101 L24.0597023,30.5457663 C24.0597023,30.8393992 24.3091549,31.1085627 24.6334433,31.1085627 L24.9078411,31.1085627 C25.2071842,31.1085627 25.4815821,30.8638686 25.4815821,30.5457663 L25.4815821,29.1754794 C25.4815821,28.8818466 25.7310347,28.6126831 26.055323,28.6126831 L28.3253416,28.6126831 C28.6246847,28.6126831 28.8990826,28.367989 28.8990826,28.0498867 L28.8990826,27.4870903 C28.8990826,27.1934574 28.64963,26.9242939 28.3253416,26.9242939 L26.055323,26.9242939 C25.7559799,26.9242939 25.4815821,26.6795998 25.4815821,26.3614975 C25.4815821,26.0678646 25.7310347,25.7987011 26.055323,25.7987011 L28.3253416,25.7987011 C28.6246847,25.7987011 28.8990826,25.554007 28.8990826,25.2359047 L28.8990826,24.6731084 C28.8990826,24.3794755 28.64963,24.110312 28.3253416,24.110312 L27.7017101,24.110312 C27.202805,24.110312 26.9533524,23.5230462 27.302586,23.1804745 L28.5249037,22.0059429 C28.7244658,21.8101876 28.749411,21.4920853 28.5747942,21.2718606 L28.1507248,20.7580031 C27.9511627,20.513309 27.5520386,20.4888396 27.3275313,20.7090642 L25.0575127,22.9357804 C24.8330053,23.156005 24.4588265,23.156005 24.2592644,22.911311 L22.2636437,20.7580031 C22.0391363,20.513309 21.6400122,20.513309 21.4155049,20.7824725 L21.0163807,21.2718606 C20.8417639,21.4920853 20.8417639,21.8101876 21.0662712,22.0059429 L22.2885889,23.1804745 C22.6378226,23.5230462 22.38837,24.110312 21.8894648,24.110312 L21.2658333,24.110312 C20.9664902,24.110312 20.6920924,24.355006 20.6920924,24.6731084 L20.6920924,25.2359047 C20.6920924,25.5295376 20.9415449,25.7987011 21.2658333,25.7987011 L23.5358519,25.7987011 C23.835195,25.7987011 24.1095928,26.0433952 24.1095928,26.3614975 C24.1095928,26.6551304 23.8601402,26.9242939 23.5358519,26.9242939 L20.6422018,26.9242939 Z" id="XMLID_1_" fill="#FFFFFF"></path>
        </g>
    </g>
</svg>