<?xml version="1.0" encoding="UTF-8"?>
<svg width="50px" height="50px" viewBox="0 0 50 50" version="1.1" xmlns="http://www.w3.org/2000/svg" xmlns:xlink="http://www.w3.org/1999/xlink">
    <!-- Generator: Sketch 48.2 (47327) - http://www.bohemiancoding.com/sketch -->
    <title>4话题_slice</title>
    <desc>Created with Sketch.</desc>
    <defs></defs>
    <g id="Artboard" stroke="none" stroke-width="1" fill="none" fill-rule="evenodd">
        <g id="4话题" fill-rule="nonzero">
            <path d="M0.05,24.975 C0.05,38.775 11.225,49.95 25.025,49.95 C38.825,49.95 50,38.775 50,24.975 C50,11.175 38.825,0 25.025,0 C11.225,0 0.05,11.175 0.05,24.975 Z" id="Shape" fill="#FEEFC4"></path>
            <path d="M16.75,36.425 C16.75,35.875 17.025,35.6 17.575,35.6 L31.75,35.6 C32.3,35.6 32.575,35.875 32.575,36.425 C32.575,36.975 32.3,37.25 31.75,37.25 L17.575,37.25 C17.3,36.975 16.75,36.7 16.75,36.425 Z M32.875,18.625 C34.275,18.625 35.375,19.725 35.375,21.125 L35.375,31.975 C35.375,33.375 34.275,34.475 32.875,34.475 L16.75,34.475 C15.35,34.475 14.25,33.375 14.25,31.975 L14.25,21.125 C14.25,19.725 15.35,18.625 16.75,18.625 L32.875,18.625 Z" id="XMLID_25_" fill="#FEC942"></path>
            <path d="M30.925,31.7 C30.925,32.25 30.65,32.525 30.1,32.525 L17.3,32.525 C16.75,32.25 16.475,31.975 16.475,31.7 L16.475,21.7 C16.475,21.15 16.75,20.875 17.3,20.875 L30.375,20.875 C30.65,20.875 31.2,21.15 31.2,21.7 L31.2,31.7 L30.925,31.7 Z" id="XMLID_22_" fill="#FEEFC4"></path>
            <path d="M32.05,23.9 C32.05,24.525 32.55,25 33.15,25 C33.775,25 34.25,24.5 34.25,23.9 C34.25,23.275 33.75,22.8 33.15,22.8 C32.525,22.8 32.05,23.3 32.05,23.9 Z" id="XMLID_19_" fill="#FFFFFF"></path>
            <path d="M32.05,27.25 C32.05,27.875 32.55,28.35 33.15,28.35 C33.775,28.35 34.25,27.85 34.25,27.25 C34.25,26.625 33.75,26.15 33.15,26.15 C32.525,26.125 32.05,26.625 32.05,27.25 Z" id="XMLID_16_" fill="#FFFFFF"></path>
            <path d="M25.925,20.85 L25.375,20.85 L25.1,20.575 L24.825,20.85 C24.275,21.125 23.725,20.85 23.425,20.575 L20.375,15.85 C20.1,15.3 20.1,14.75 20.65,14.45 C21.2,13.9 21.75,14.175 22.05,14.725 L25.1,19.175 L28.15,13.05 C28.425,12.5 28.975,12.225 29.55,12.5 C30.1,12.775 30.375,13.325 30.1,13.9 L26.75,20.3 C26.475,20.575 26.2,20.85 25.925,20.85 Z" id="XMLID_13_" fill="#FEC942"></path>
        </g>
    </g>
</svg>