<?xml version="1.0" encoding="UTF-8"?>
<svg width="50px" height="50px" viewBox="0 0 50 50" version="1.1" xmlns="http://www.w3.org/2000/svg" xmlns:xlink="http://www.w3.org/1999/xlink">
    <!-- Generator: Sketch 48.2 (47327) - http://www.bohemiancoding.com/sketch -->
    <title>5课程表_slice</title>
    <desc>Created with Sketch.</desc>
    <defs></defs>
    <g id="Artboard" stroke="none" stroke-width="1" fill="none" fill-rule="evenodd">
        <g id="5课程表" transform="translate(-0.000000, 0.000000)">
            <path d="M0,25 C0,38.8 11.2,50 25,50 C38.8,50 50,38.8 50,25 C50,11.2 38.8,0 25,0 C11.2,0 0,11.2 0,25 Z" id="XMLID_2_" fill="#D7FFEE" fill-rule="nonzero"></path>
            <path d="M15.525,12.45 L34.65,12.45 L34.725,12.45 C35.025,12.45 35.25,12.675 35.25,12.975 L35.25,36.975 C35.25,37.275 35.025,37.5 34.725,37.5 L34.65,37.5 L15.525,37.5 L15.45,37.5 C15.15,37.5 14.925,37.275 14.925,36.975 L14.925,12.975 C14.925,12.675 15.15,12.45 15.45,12.45 L15.525,12.45 Z M17.6,29.725 L17.525,29.725 C17.225,29.725 17,29.95 17,30.25 L17,30.325 L17,33.3 L17,33.375 C17,33.675 17.225,33.9 17.525,33.9 L17.6,33.9 L20.575,33.9 L20.65,33.9 C20.95,33.9 21.175,33.675 21.175,33.375 L21.175,33.3 L21.175,30.325 L21.175,30.25 C21.175,29.95 20.95,29.725 20.65,29.725 L20.575,29.725 L17.6,29.725 Z M22.4,18.375 L22.4,19.05 C22.4,19.35 22.625,19.575 22.925,19.575 L32.025,19.575 C32.325,19.575 32.55,19.35 32.55,19.05 L32.55,18.9 C32.55,18.6 32.325,18.375 32.025,18.375 L22.4,18.375 Z M22.4,15.4 L22.4,16.075 C22.4,16.375 22.625,16.6 22.925,16.6 L32.025,16.6 C32.325,16.6 32.55,16.375 32.55,16.075 L32.55,15.925 C32.55,15.625 32.325,15.4 32.025,15.4 L22.4,15.4 Z M17.6,15.4 L17.525,15.4 C17.225,15.4 17,15.625 17,15.925 L17,16 L17,18.975 L17,19.05 C17,19.35 17.225,19.575 17.525,19.575 L17.6,19.575 L20.575,19.575 L20.65,19.575 C20.95,19.575 21.175,19.35 21.175,19.05 L21.175,18.975 L21.175,16 L21.175,15.925 C21.175,15.625 20.95,15.4 20.65,15.4 L20.575,15.4 L17.6,15.4 Z M20,16.6 L18.725,16.6 C18.425,16.6 18.2,16.825 18.2,17.125 L18.2,17.875 C18.2,18.175 18.425,18.4 18.725,18.4 L19.475,18.4 C19.775,18.4 20,18.175 20,17.875 L20,16.6 Z M22.4,25.55 L22.4,26.225 C22.4,26.525 22.625,26.75 22.925,26.75 L32.025,26.75 C32.325,26.75 32.55,26.525 32.55,26.225 L32.55,26.075 C32.55,25.775 32.325,25.55 32.025,25.55 L22.4,25.55 Z M22.4,22.575 L22.4,23.25 C22.4,23.55 22.625,23.775 22.925,23.775 L32.025,23.775 C32.325,23.775 32.55,23.55 32.55,23.25 L32.55,23.1 C32.55,22.8 32.325,22.575 32.025,22.575 L22.4,22.575 Z M17.6,22.575 L17.525,22.575 C17.225,22.575 17,22.8 17,23.1 L17,23.175 L17,26.15 L17,26.225 C17,26.525 17.225,26.75 17.525,26.75 L17.6,26.75 L20.575,26.75 L20.65,26.75 C20.95,26.75 21.175,26.525 21.175,26.225 L21.175,26.15 L21.175,23.175 L21.175,23.1 C21.175,22.8 20.95,22.575 20.65,22.575 L20.575,22.575 L17.6,22.575 Z M20,23.75 L18.725,23.75 C18.425,23.75 18.2,23.975 18.2,24.275 L18.2,25.025 C18.2,25.325 18.425,25.55 18.725,25.55 L19.475,25.55 C19.775,25.55 20,25.325 20,25.025 L20,23.75 Z M22.4,32.725 L22.4,33.4 C22.4,33.7 22.625,33.925 22.925,33.925 L32.025,33.925 C32.325,33.925 32.55,33.7 32.55,33.4 L32.55,33.25 C32.55,32.95 32.325,32.725 32.025,32.725 L22.4,32.725 Z M22.4,29.725 L22.4,30.4 C22.4,30.7 22.625,30.925 22.925,30.925 L32.025,30.925 C32.325,30.925 32.55,30.7 32.55,30.4 L32.55,30.25 C32.55,29.95 32.325,29.725 32.025,29.725 L22.4,29.725 Z M19.475,30.925 L18.725,30.925 C18.425,30.925 18.2,31.15 18.2,31.45 L18.2,32.2 C18.2,32.5 18.425,32.725 18.725,32.725 L19.475,32.725 C19.775,32.725 20,32.5 20,32.2 L20,31.45 C20,31.175 19.775,30.925 19.475,30.925 Z" id="XMLID_1_" fill="#2FDDAF"></path>
        </g>
    </g>
</svg>