<?xml version="1.0" encoding="UTF-8"?>
<svg width="50px" height="50px" viewBox="0 0 50 50" version="1.1" xmlns="http://www.w3.org/2000/svg" xmlns:xlink="http://www.w3.org/1999/xlink">
    <!-- Generator: Sketch 48.2 (47327) - http://www.bohemiancoding.com/sketch -->
    <title>6专栏_slice</title>
    <desc>Created with Sketch.</desc>
    <defs></defs>
    <g id="Artboard" stroke="none" stroke-width="1" fill="none" fill-rule="evenodd">
        <g id="6专栏" fill-rule="nonzero">
            <path d="M0,25 C0,38.8 11.2,50 25,50 C38.8,50 50,38.8 50,25 C50,11.2 38.8,0 25,0 C11.2,0 0,11.2 0,25 Z" id="Shape" fill="#FFE5CF"></path>
            <path d="M25.05,12.25 L24.775,12.25 C20,12.525 16,16.5 16,21.3 C16,23.7 16.8,25.825 18.4,27.425 L18.925,27.95 C20,29.275 20.525,29.55 20.525,31.15 L20.525,31.95 L29.575,31.95 L29.575,31.15 C29.575,29.55 30.1,29.025 31.175,27.95 L31.975,27.15 C33.3,25.55 34.1,23.425 34.1,21.3 C34.075,16.25 30.1,12.25 25.05,12.25" id="XMLID_10_" fill="#F79034"></path>
            <path d="M22.375,36.45 C22.375,36.975 22.9,37.25 23.175,37.25 L26.9,37.25 C27.425,37.25 27.7,36.975 27.7,36.45 C27.7,35.925 27.175,35.65 26.9,35.65 L23.175,35.65 C22.65,35.65 22.375,35.925 22.375,36.45 Z" id="XMLID_15_" fill="#F79034"></path>
            <path d="M25.05,15.975 C22.125,15.975 19.725,18.375 19.725,21.3 C19.725,21.825 20.25,22.1 20.525,22.1 C20.8,22.1 21.325,21.575 21.325,21.3 C21.325,19.45 22.925,17.575 25.05,17.575 C25.575,17.575 25.85,17.05 25.85,16.775 C25.85,16.5 25.575,15.975 25.05,15.975 Z" id="XMLID_12_" fill="#FFFFFF"></path>
            <path d="M20.525,33.8 C20.525,34.325 21.05,34.6 21.325,34.6 L28.5,34.6 C29.025,34.6 29.3,34.325 29.3,33.8 C29.3,33.275 28.775,33 28.5,33 L21.325,33 C21.05,33 20.525,33.25 20.525,33.8 Z" id="XMLID_9_" fill="#F79034"></path>
        </g>
    </g>
</svg>