<?xml version="1.0" encoding="UTF-8"?>
<svg width="50px" height="50px" viewBox="0 0 50 50" version="1.1" xmlns="http://www.w3.org/2000/svg" xmlns:xlink="http://www.w3.org/1999/xlink">
    <!-- Generator: Sketch 48.2 (47327) - http://www.bohemiancoding.com/sketch -->
    <title>7一对一_slice</title>
    <desc>Created with Sketch.</desc>
    <defs></defs>
    <g id="Artboard" stroke="none" stroke-width="1" fill="none" fill-rule="evenodd">
        <g id="7一对一" fill-rule="nonzero">
            <path d="M0.149253731,24.9751244 C0.149253731,38.7064677 11.2935323,49.8507463 25.0248756,49.8507463 C38.7562189,49.8507463 49.9004975,38.7064677 49.9004975,24.9751244 C49.9004975,11.2437811 38.7562189,0.0995024876 25.0248756,0.0995024876 C11.2935323,0.0995024876 0.149253731,11.2437811 0.149253731,24.9751244 Z" id="Shape" fill="#FFD2E8"></path>
            <path d="M23.9303483,28.3084577 L24.2039801,27.4626866 L24.4776119,26.5920398 L25.5970149,26.5920398 L25.7462687,27.0646766 L26.119403,28.3084577 L25.7462687,28.7313433 L25.0497512,29.5522388 L24.2039801,28.6069652 L23.9303483,28.3084577 Z M31.1691542,18.7313433 C31.1691542,18.7313433 31.1691542,18.7064677 31.1691542,18.7064677 C31.1691542,18.2587065 31.119403,17.8109453 31.0199005,17.4129353 C30.4228856,14.6517413 27.960199,12.5621891 25,12.5621891 C22.039801,12.5621891 19.5522388,14.6766169 18.9800995,17.4626866 C18.9054726,17.8606965 18.8557214,18.2587065 18.8557214,18.6567164 C18.8557214,18.681592 18.8557214,18.681592 18.8557214,18.7064677 C18.8557214,21.8159204 21.1691542,24.4029851 24.1791045,24.800995 C24.4527363,24.8258706 24.7263682,24.8507463 25,24.8507463 C25.2487562,24.8507463 25.4975124,24.8258706 25.721393,24.800995 C28.8059701,24.4527363 31.1691542,21.8656716 31.1691542,18.7313433 Z M24.5024876,26.4179104 C24.5024876,26.4179104 25.2487562,26.4427861 25.6218905,26.4179104 C25.6218905,26.4179104 25.6716418,26.3432836 25.7462687,26.2437811 C25.8706468,26.0696517 26.0199005,25.7462687 25.9950249,25.2985075 C25.920398,25.2985075 25.8208955,25.2985075 25.7462687,25.2985075 C25.5223881,25.2736318 25.2736318,25.2736318 25.0497512,25.2736318 C24.7512438,25.2736318 24.4776119,25.2985075 24.2039801,25.3233831 C24.1791045,25.3233831 24.1542289,25.3233831 24.1293532,25.3233831 C24.1293532,25.3233831 24.1044776,25.5970149 24.2039801,25.920398 C24.2537313,26.0696517 24.3532338,26.2686567 24.5024876,26.4179104 Z M31.3930348,27.6119403 C30.7462687,27.0646766 30.0248756,26.5920398 29.2288557,26.2189055 C28.9303483,26.0696517 28.6318408,25.9452736 28.3084577,25.8208955 L27.5124378,26.8905473 L25.7462687,29.2537313 L25.0248756,30.2238806 L24.2039801,29.1293532 L22.5621891,26.9154229 L21.7412935,25.8208955 C21.4179104,25.9452736 21.0945274,26.0696517 20.7960199,26.2437811 C20.0248756,26.6169154 19.3034826,27.0895522 18.6318408,27.6616915 C18.2835821,27.9850746 17.9353234,28.3084577 17.6119403,28.681592 C16.0696517,30.4477612 15.1492537,32.761194 15.1492537,35.2985075 L15.1492537,37.4378109 L34.9004975,37.4378109 L34.9004975,35.2985075 C34.9004975,32.7363184 33.9552239,30.4228856 32.3880597,28.6318408 C32.0895522,28.2587065 31.7412935,27.9353234 31.3930348,27.6119403 Z" id="icon_36_" fill="#B17EAB"></path>
        </g>
    </g>
</svg>