<?xml version="1.0" encoding="UTF-8"?>
<svg width="50px" height="50px" viewBox="0 0 50 50" version="1.1" xmlns="http://www.w3.org/2000/svg" xmlns:xlink="http://www.w3.org/1999/xlink">
    <!-- Generator: Sketch 48.2 (47327) - http://www.bohemiancoding.com/sketch -->
    <title>8建议_slice</title>
    <desc>Created with Sketch.</desc>
    <defs></defs>
    <g id="Artboard" stroke="none" stroke-width="1" fill="none" fill-rule="evenodd">
        <g id="8建议" fill-rule="nonzero">
            <path d="M0,25.0497512 C0,38.7810945 11.175,49.9004975 24.975,49.9004975 C38.775,49.9004975 49.95,38.7810945 49.95,25.0497512 C49.95,11.318408 38.775,0.199004975 24.975,0.199004975 C11.175,0.199004975 0,11.318408 0,25.0497512 Z" id="XMLID_12_" fill="#D4FFF8"></path>
            <path d="M25.225,20.3731343 L23.475,20.3731343 L24.35,18.0099502 L25.225,20.3731343 Z M30.55,25.9452736 C30,25.8208955 29.5,25.9701493 29.025,26.4179104 C28.55,26.8656716 28.225,27.5621891 28,28.4825871 C27.8,29.3781095 27.8,30.1492537 28.05,30.7960199 C28.3,31.4427861 28.65,31.8159204 29.15,31.9154229 C29.375,31.9651741 29.575,31.9651741 29.775,31.9402985 C29.975,31.9154229 30.125,31.8656716 30.25,31.7910448 L29.45,30.6218905 L30.775,29.7512438 L31.2,30.4228856 C31.3,30.2487562 31.4,30.0746269 31.45,29.8507463 C31.525,29.6517413 31.575,29.4278607 31.625,29.1791045 C31.8,28.4079602 31.8,27.7114428 31.625,27.0646766 C31.475,26.4427861 31.1,26.0696517 30.55,25.9452736 Z M25.075,25.1741294 L25.075,35.3233831 C25.075,35.9701493 24.525,36.5174129 23.875,36.5174129 L13.675,36.5174129 C13.025,36.5174129 12.475,35.9701493 12.475,35.3233831 L12.475,25.1741294 C12.475,24.5273632 13.025,23.9800995 13.675,23.9800995 L23.85,23.9800995 C24.525,23.9800995 25.075,24.5273632 25.075,25.1741294 Z M21.625,26.318408 L16.7,26.318408 L16.7,35 L18.725,35 L18.725,31.4427861 L21.375,31.4427861 L21.375,30.0497512 L18.725,30.0497512 L18.725,27.7363184 L21.625,27.7363184 L21.625,26.318408 Z M37.45,25.5721393 L35.125,35.4975124 C34.975,36.1442786 34.325,36.5422886 33.675,36.3930348 L25.7,34.5522388 L25.7,25.199005 C25.7,24.5771144 25.375,24.0298507 24.9,23.7064677 L25.125,22.7363184 C25.275,22.0895522 25.925,21.6915423 26.575,21.840796 L36.55,24.1542289 C37.175,24.278607 37.6,24.9253731 37.45,25.5721393 Z M33.4,26.5174129 C32.975,25.5223881 32.15,24.8756219 30.925,24.60199 C29.675,24.3034826 28.6,24.5273632 27.725,25.2736318 C26.85,26.0199005 26.3,26.9651741 26.025,28.0845771 C25.725,29.3781095 25.85,30.4975124 26.375,31.4676617 C26.9,32.4378109 27.725,33.0348259 28.85,33.3084577 C29.325,33.4079602 29.75,33.4328358 30.15,33.3830846 C30.55,33.3333333 30.9,33.2089552 31.225,33.0348259 L32.1,34.278607 L33.45,33.4825871 L32.45,32.0149254 C32.7,31.7910448 32.925,31.4676617 33.15,31.0447761 C33.375,30.6467662 33.55,30.1741294 33.65,29.7014925 C33.9,28.5572139 33.825,27.5124378 33.4,26.5174129 Z M22.45,23.1840796 L24.375,23.1840796 L24.525,22.5621891 C24.575,22.3134328 24.7,22.0895522 24.85,21.8905473 L23,21.8905473 L22.45,23.1840796 Z M23.725,15.3233831 L25,15.3233831 L27.5,21.3930348 L30.125,21.9900498 L30.125,14.6766169 C30.125,14.079602 29.625,13.5820896 29.025,13.5820896 L19.7,13.5820896 C19.1,13.5820896 18.6,14.079602 18.6,14.6766169 L18.6,23.1840796 L20.5,23.1840796 L23.725,15.3233831 Z" id="icon_16_" fill="#3CBCB2"></path>
        </g>
    </g>
</svg>