<?xml version="1.0" encoding="UTF-8"?>
<svg width="25px" height="25px" viewBox="0 0 25 25" version="1.1" xmlns="http://www.w3.org/2000/svg" xmlns:xlink="http://www.w3.org/1999/xlink">
    <!-- Generator: Sketch 48.2 (47327) - http://www.bohemiancoding.com/sketch -->
    <title>关注_选中_slice</title>
    <desc>Created with Sketch.</desc>
    <defs>
        <linearGradient x1="0%" y1="0%" x2="100%" y2="100%" id="linearGradient-1">
            <stop stop-color="#FFE38A" offset="0%"></stop>
            <stop stop-color="#FFA74A" offset="100%"></stop>
        </linearGradient>
    </defs>
    <g id="Artboard" stroke="none" stroke-width="1" fill="none" fill-rule="evenodd" transform="translate(-174.000000, -7.000000)">
        <g id="关注-选中" transform="translate(174.000000, 7.000000)" fill="url(#linearGradient-1)" fill-rule="nonzero">
            <path d="M17.1686175,0.917908736 C15.7231241,0.332183563 14.1472208,0.00240255747 12.4922198,0.00240255747 C5.5994713,0.00240255747 0.0125836682,5.59638822 0.0125836682,12.4963831 C0.0125836682,19.3973778 5.5994713,24.9907166 12.4922198,24.9907166 C19.384939,24.9907166 24.971856,19.3973484 24.971856,12.4963831 C24.971856,10.8342163 24.6404857,9.25188497 24.0528189,7.80143664 L20.8818327,10.6943938 L20.491778,11.1838165 C20.5820663,11.6666229 20.6038013,11.9884939 20.6038013,12.4964125 C20.6038013,16.9809931 16.9716811,20.617641 12.4922199,20.617641 C8.01214185,20.617641 4.37999228,16.9809931 4.37999228,12.4964125 C4.37999228,8.01118497 8.01217121,4.3313406 12.4922199,4.37488991 C12.9336455,4.37947716 13.3572719,4.38871043 13.6096033,4.43422991 L17.1686175,0.917908736 Z M15.8219595,8.08569819 L14.0655384,9.83693385 C14.0727051,9.84022724 14.0780507,9.84416756 14.0826621,9.84746098 L13.1629201,10.7510874 C12.9540881,10.6706638 12.7293954,10.6218215 12.4922198,10.6218215 C11.4578406,10.6218215 10.619781,11.4608149 10.619781,12.4963832 C10.619781,13.5325983 11.4578406,14.3709449 12.4922198,14.3709449 C13.5259236,14.3709449 14.3632489,13.5325983 14.3632489,12.4963832 C14.3632489,12.2582586 14.3145507,12.0326902 14.2341607,11.8236181 L16.2877635,9.76765483 L16.2864125,9.7670079 L16.8912322,9.16149293 L20.5596557,9.72013578 L24.971856,5.30351095 L20.357403,4.64194937 L18.2023507,6.79024546 L18.1963882,6.7849525 L20.3771701,4.60301667 L19.67748,0.00240255747 L15.265221,4.42035063 L15.8219595,8.08569819 Z M12.4922198,9.39235434 C12.6865716,9.39235434 12.8763121,9.41611385 13.0614412,9.44972417 L14.6729723,7.83045974 L14.3751737,5.87344546 C13.7756408,5.70260037 13.1457964,5.60500402 12.4922198,5.60500402 C8.69074303,5.60500402 5.60872334,8.69056626 5.60872334,12.4964126 C5.60872334,16.3022883 8.69074303,19.3868213 12.4922198,19.3868213 C16.2936966,19.3868213 19.3750995,16.3022883 19.3750995,12.4964126 C19.3750995,11.8882511 19.2887764,11.301879 19.1411548,10.7399134 L17.1297589,10.329003 L15.5353809,11.9265369 C15.5696282,12.1112319 15.5920681,12.3005435 15.5920681,12.4964126 C15.5920681,14.2106857 14.2045248,15.5997945 12.4922492,15.5997945 C10.7799442,15.5997945 9.39175474,14.2106857 9.39175474,12.4964126 C9.3917254,10.78211 10.7799149,9.39235434 12.4922198,9.39235434 Z" id="Shape"></path>
        </g>
    </g>
</svg>