<?xml version="1.0" encoding="UTF-8"?>
<svg width="25px" height="25px" viewBox="0 0 25 25" version="1.1" xmlns="http://www.w3.org/2000/svg" xmlns:xlink="http://www.w3.org/1999/xlink">
    <!-- Generator: Sketch 48.2 (47327) - http://www.bohemiancoding.com/sketch -->
    <title>home2_slice</title>
    <desc>Created with Sketch.</desc>
    <defs></defs>
    <g id="Artboard" stroke="none" stroke-width="1" fill="none" fill-rule="evenodd" transform="translate(-40.000000, -7.000000)">
        <g id="home2" transform="translate(40.000000, 7.000000)" fill="#D9D9D9" fill-rule="nonzero">
            <path d="M24.6696897,11.6329675 L13.7920149,0.617734561 C13.7379325,0.551698392 13.6169035,0.436621345 13.4488806,0.322950556 C13.1660712,0.131604269 12.8456025,0.0153303509 12.4940087,0.0153303509 C12.1182908,0.0153303509 11.7901794,0.13220269 11.5146043,0.325972602 C11.3479524,0.443233918 11.2330493,0.562888918 11.1680279,0.652114064 L0.319552851,11.6343439 C-0.0995126283,12.0577892 -0.0995126283,12.7458878 0.319552851,13.1702906 C0.735322035,13.5921501 1.28863082,13.4142384 1.7599701,12.9379522 L2.48993629,12.1977607 L3.59935422,11.0954026 C3.56058643,11.1447128 3.53427452,11.1820545 3.53424535,11.1940529 L3.53424535,22.3533566 C3.53424535,23.8155475 4.70133367,24.9974362 6.14093412,24.9974362 L10.1806599,24.9974362 L10.4777921,24.9974362 L10.4777921,24.6925987 L10.4777921,17.6444725 C10.4777921,17.1337171 10.8886023,16.7180513 11.3963757,16.7180513 L13.5928377,16.7180513 C14.1006695,16.7180513 14.5114213,17.1337171 14.5114213,17.6444725 L14.5114213,24.6925987 L14.5114213,24.9974363 L14.8086118,24.9974363 L18.8483377,24.9974363 C20.2875006,24.9974363 21.4550264,23.8153082 21.4550264,22.3533567 L21.4550264,11.235434 L23.2294475,13.0251128 C23.8036425,13.4130117 24.3097532,13.5348808 24.6696898,13.1702308 C25.0887844,12.7459177 25.0887844,12.0573404 24.6696897,11.6329675 Z" id="Shape"></path>
        </g>
    </g>
</svg>